<svg width="70" height="70" viewBox="0 0 70 70" fill="none" xmlns="http://www.w3.org/2000/svg">
<rect width="70" height="70" rx="10" fill="#F7E36D" fill-opacity="0.2"/>
<path d="M28.7778 44.2222V40.3333M34.6111 44.2222V36.4444M40.4444 44.2222V32.5556M44.3333 52H24.8889C23.8575 52 22.8683 51.5903 22.139 50.861C21.4097 50.1317 21 49.1425 21 48.1111V20.8889C21 19.8575 21.4097 18.8683 22.139 18.139C22.8683 17.4097 23.8575 17 24.8889 17H35.7506C36.2662 17.0001 36.7607 17.205 37.1253 17.5697L47.6525 28.0969C48.0172 28.4615 48.2221 28.956 48.2222 29.4717V48.1111C48.2222 49.1425 47.8125 50.1317 47.0832 50.861C46.3539 51.5903 45.3647 52 44.3333 52Z" stroke="#F9C94E" stroke-width="3" stroke-linecap="round" stroke-linejoin="round"/>
</svg>
