<svg width="70" height="70" viewBox="0 0 70 70" fill="none" xmlns="http://www.w3.org/2000/svg">
<rect width="70" height="70" rx="10" fill="#FF3344" fill-opacity="0.2"/>
<path d="M39.6749 26.8681C38.9916 26.8681 38.3236 27.0707 37.7555 27.4504C37.1874 27.83 36.7446 28.3696 36.4831 29.0008C36.2216 29.6321 36.1532 30.3268 36.2865 30.9969C36.4198 31.6671 36.7488 32.2827 37.232 32.7659C37.6337 33.1676 38.1283 33.4641 38.672 33.629C39.2157 33.794 39.7917 33.8223 40.3489 33.7114C40.9062 33.6006 41.4275 33.354 41.8667 32.9936C42.3059 32.6331 42.6494 32.17 42.8668 31.6451C43.0842 31.1201 43.1688 30.5497 43.1131 29.9843C43.0575 29.4189 42.8632 28.8759 42.5475 28.4035C42.2319 27.9311 41.8046 27.5438 41.3035 27.276C40.8024 27.0082 40.243 26.8681 39.6749 26.8681ZM40.8473 31.5043C40.6942 31.6685 40.5097 31.8003 40.3046 31.8916C40.0996 31.983 39.8782 32.0321 39.6537 32.0361C39.4293 32.04 39.2063 31.9988 38.9982 31.9147C38.79 31.8306 38.6009 31.7055 38.4422 31.5467C38.2834 31.388 38.1583 31.1989 38.0742 30.9907C37.9901 30.7826 37.9489 30.5596 37.9528 30.3352C37.9568 30.1107 38.0059 29.8893 38.0973 29.6843C38.1886 29.4792 38.3204 29.2947 38.4846 29.1416C38.8041 28.8392 39.2278 28.6714 39.6677 28.6731C40.1077 28.6748 40.5301 28.8457 40.8473 29.1505C41.1603 29.464 41.3362 29.8889 41.3362 30.3319C41.3362 30.7749 41.1603 31.1998 40.8473 31.5132V31.5043Z" fill="#FF3344" stroke="#FF3344" stroke-width="0.5"/>
<path d="M22.949 45.7872L19.5209 49.2109C19.353 49.3787 19.2587 49.6064 19.2587 49.8439C19.2587 50.0813 19.353 50.309 19.5209 50.4769C19.6888 50.6448 19.9165 50.7391 20.1539 50.7391C20.3913 50.7391 20.619 50.6448 20.7869 50.4769L24.215 47.0488C24.3823 46.8815 24.4763 46.6546 24.4763 46.418C24.4763 46.1814 24.3823 45.9545 24.215 45.7872C24.0477 45.6199 23.8208 45.5259 23.5842 45.5259C23.3476 45.5259 23.1207 45.6199 22.9534 45.7872H22.949Z" fill="#FF3344" stroke="#FF3344" stroke-width="0.5"/>
<path d="M52.7363 17.2614C52.6399 17.1649 52.5227 17.0918 52.3936 17.0478C52.2646 17.0037 52.1271 16.9899 51.9919 17.0073L43.4149 18.0593C42.2342 18.2095 41.1367 18.7473 40.2944 19.5884L37.5618 22.3211L32.939 22.0179C31.3202 21.9017 29.7203 22.4233 28.4811 23.4712L22.0974 28.8429C21.9751 28.9464 21.883 29.081 21.8307 29.2325C21.7784 29.384 21.7679 29.5467 21.8003 29.7037C21.8327 29.8606 21.9067 30.0059 22.0147 30.1243C22.1227 30.2427 22.2606 30.3298 22.4139 30.3764L27.8525 32.0125L26.1363 33.751C26.0534 33.8338 25.9876 33.9322 25.9427 34.0404C25.8979 34.1486 25.8748 34.2647 25.8748 34.3818C25.8748 34.499 25.8979 34.615 25.9427 34.7232C25.9876 34.8315 26.0534 34.9298 26.1363 35.0126L26.3591 35.2355L23.6042 36.7289C23.3008 36.8953 23.0403 37.1301 22.8434 37.4146C22.6465 37.6992 22.5185 38.0257 22.4696 38.3683C22.4207 38.7108 22.4523 39.0601 22.5618 39.3883C22.6713 39.7166 22.8557 40.0149 23.1005 40.2595L29.7293 46.8973C30.1452 47.3145 30.7094 47.5501 31.2985 47.5526C31.4058 47.5527 31.5131 47.5452 31.6194 47.5303C31.964 47.4827 32.2926 47.355 32.579 47.1576C32.8654 46.9603 33.1017 46.6986 33.2688 46.3935L34.7711 43.6564L34.994 43.8793C35.0768 43.9622 35.1752 44.028 35.2834 44.0728C35.3916 44.1177 35.5077 44.1408 35.6248 44.1408C35.742 44.1408 35.858 44.1177 35.9662 44.0728C36.0745 44.028 36.1728 43.9622 36.2556 43.8793L37.9897 42.1452L39.6258 47.5838C39.6722 47.7374 39.7592 47.8757 39.8777 47.9839C39.9962 48.0922 40.1417 48.1665 40.2989 48.199C40.3597 48.2052 40.4209 48.2052 40.4817 48.199C40.6115 48.1991 40.7399 48.1708 40.8577 48.1161C40.9755 48.0615 41.0799 47.9817 41.1637 47.8825L46.5399 41.5077C47.5883 40.2688 48.1099 38.6686 47.9932 37.0499L47.6767 32.436L50.4093 29.7033C51.2488 28.8604 51.7849 27.763 51.9339 26.5828L52.9904 18.0059C53.0078 17.8706 52.994 17.7331 52.9499 17.6041C52.9059 17.475 52.8328 17.3578 52.7363 17.2614ZM24.5047 29.1505L29.6357 24.8219C30.5252 24.0806 31.6683 23.7145 32.8231 23.8011L35.8856 24.0106L29.288 30.5859L24.5047 29.1505ZM31.6952 45.5332C31.662 45.5937 31.6153 45.6456 31.5586 45.685C31.5019 45.7243 31.4369 45.75 31.3686 45.7599C31.3003 45.7698 31.2307 45.7638 31.1651 45.7422C31.0996 45.7207 31.0399 45.6842 30.9909 45.6357L24.3531 39.0069C24.3046 38.9578 24.2681 38.8982 24.2466 38.8326C24.225 38.7671 24.219 38.6974 24.2289 38.6291C24.2388 38.5609 24.2645 38.4958 24.3038 38.4391C24.3432 38.3825 24.3951 38.3357 24.4556 38.3025L27.6475 36.5506L33.4427 42.3458L31.6952 45.5332ZM46.1966 37.1747C46.276 38.3288 45.9035 39.4685 45.158 40.3531L40.8472 45.493L39.4118 40.7098L46.005 34.1166L46.1966 37.1747ZM50.1463 26.3599C50.0496 27.1492 49.6918 27.8835 49.1299 28.4462L35.6181 41.9847L28.013 34.3796L41.5426 20.85C42.1053 20.288 42.8396 19.9303 43.6289 19.8336L51.1003 18.8974L50.1463 26.3599Z" fill="#FF3344" stroke="#FF3344" stroke-width="0.5"/>
<path d="M23.9341 51.7385C24.0169 51.8214 24.1152 51.8871 24.2235 51.932C24.3317 51.9769 24.4477 52 24.5649 52C24.682 52 24.7981 51.9769 24.9063 51.932C25.0145 51.8871 25.1129 51.8214 25.1957 51.7385L27.0278 49.884C27.1951 49.7167 27.2891 49.4898 27.2891 49.2532C27.2891 49.0166 27.1951 48.7897 27.0278 48.6224C26.8605 48.4551 26.6336 48.3611 26.3971 48.3611C26.1605 48.3611 25.9336 48.4551 25.7663 48.6224L23.9118 50.4769C23.8303 50.5612 23.7663 50.6606 23.7233 50.7697C23.6804 50.8787 23.6593 50.9951 23.6614 51.1123C23.6635 51.2295 23.6886 51.3451 23.7354 51.4525C23.7822 51.56 23.8497 51.6571 23.9341 51.7385Z" fill="#FF3344" stroke="#FF3344" stroke-width="0.5"/>
<path d="M18.8878 46.3267C19.1239 46.3257 19.35 46.2311 19.5164 46.0637L21.3709 44.2092C21.4984 44.0366 21.5595 43.8237 21.5428 43.6098C21.526 43.3958 21.4327 43.195 21.2798 43.0443C21.127 42.8936 20.9249 42.8031 20.7107 42.7895C20.4965 42.7758 20.2845 42.8399 20.1137 42.9699L18.2593 44.8244C18.1353 44.9491 18.051 45.1076 18.0169 45.28C17.9828 45.4525 18.0005 45.6312 18.0677 45.7936C18.1348 45.9561 18.2485 46.0951 18.3945 46.1931C18.5404 46.2911 18.712 46.3438 18.8878 46.3445V46.3267Z" fill="#FF3344" stroke="#FF3344" stroke-width="0.5"/>
</svg>
