<svg width="92" height="15" viewBox="0 0 92 15" fill="none" xmlns="http://www.w3.org/2000/svg">
<path d="M8.64122 0.580182C8.39008 -0.193394 7.29565 -0.193394 7.04367 0.580182L5.76781 4.50602C5.71286 4.67455 5.606 4.82138 5.46252 4.92548C5.31904 5.02958 5.14631 5.08562 4.96904 5.08557H0.841619C0.0285656 5.08557 -0.310767 6.12709 0.347739 6.60585L3.6873 9.03157C3.83076 9.13586 3.93752 9.28288 3.99229 9.45156C4.04706 9.62025 4.04703 9.80194 3.9922 9.97061L2.71718 13.8964C2.4652 14.67 3.35133 15.3143 4.009 14.8355L7.34856 12.4098C7.4921 12.3054 7.66499 12.2492 7.84244 12.2492C8.0199 12.2492 8.19279 12.3054 8.33632 12.4098L11.6759 14.8355C12.3336 15.3143 13.2197 14.6709 12.9677 13.8964L11.6927 9.97061C11.6379 9.80194 11.6378 9.62025 11.6926 9.45156C11.7474 9.28288 11.8541 9.13586 11.9976 9.03157L15.3371 6.60585C15.9948 6.12709 15.6572 5.08557 14.8433 5.08557H10.715C10.5379 5.08544 10.3653 5.02932 10.222 4.92523C10.0787 4.82114 9.97198 4.67442 9.91707 4.50602L8.64122 0.580182Z" fill="#F9C94E"/>
<path d="M27.6412 0.580182C27.3901 -0.193394 26.2956 -0.193394 26.0437 0.580182L24.7678 4.50602C24.7129 4.67455 24.606 4.82138 24.4625 4.92548C24.319 5.02958 24.1463 5.08562 23.969 5.08557H19.8416C19.0286 5.08557 18.6892 6.12709 19.3477 6.60585L22.6873 9.03157C22.8308 9.13586 22.9375 9.28288 22.9923 9.45156C23.0471 9.62025 23.047 9.80194 22.9922 9.97061L21.7172 13.8964C21.4652 14.67 22.3513 15.3143 23.009 14.8355L26.3486 12.4098C26.4921 12.3054 26.665 12.2492 26.8424 12.2492C27.0199 12.2492 27.1928 12.3054 27.3363 12.4098L30.6759 14.8355C31.3336 15.3143 32.2197 14.6709 31.9677 13.8964L30.6927 9.97061C30.6379 9.80194 30.6378 9.62025 30.6926 9.45156C30.7474 9.28288 30.8541 9.13586 30.9976 9.03157L34.3371 6.60585C34.9948 6.12709 34.6572 5.08557 33.8433 5.08557H29.715C29.5379 5.08544 29.3653 5.02932 29.222 4.92523C29.0787 4.82114 28.972 4.67442 28.9171 4.50602L27.6412 0.580182Z" fill="#F9C94E"/>
<path d="M46.6412 0.580182C46.3901 -0.193394 45.2956 -0.193394 45.0437 0.580182L43.7678 4.50602C43.7129 4.67455 43.606 4.82138 43.4625 4.92548C43.319 5.02958 43.1463 5.08562 42.969 5.08557H38.8416C38.0286 5.08557 37.6892 6.12709 38.3477 6.60585L41.6873 9.03157C41.8308 9.13586 41.9375 9.28288 41.9923 9.45156C42.0471 9.62025 42.047 9.80194 41.9922 9.97061L40.7172 13.8964C40.4652 14.67 41.3513 15.3143 42.009 14.8355L45.3486 12.4098C45.4921 12.3054 45.665 12.2492 45.8424 12.2492C46.0199 12.2492 46.1928 12.3054 46.3363 12.4098L49.6759 14.8355C50.3336 15.3143 51.2197 14.6709 50.9677 13.8964L49.6927 9.97061C49.6379 9.80194 49.6378 9.62025 49.6926 9.45156C49.7474 9.28288 49.8541 9.13586 49.9976 9.03157L53.3371 6.60585C53.9948 6.12709 53.6572 5.08557 52.8433 5.08557H48.715C48.5379 5.08544 48.3653 5.02932 48.222 4.92523C48.0787 4.82114 47.972 4.67442 47.9171 4.50602L46.6412 0.580182Z" fill="#F9C94E"/>
<path d="M65.6412 0.580182C65.3901 -0.193394 64.2956 -0.193394 64.0437 0.580182L62.7678 4.50602C62.7129 4.67455 62.606 4.82138 62.4625 4.92548C62.319 5.02958 62.1463 5.08562 61.969 5.08557H57.8416C57.0286 5.08557 56.6892 6.12709 57.3477 6.60585L60.6873 9.03157C60.8308 9.13586 60.9375 9.28288 60.9923 9.45156C61.0471 9.62025 61.047 9.80194 60.9922 9.97061L59.7172 13.8964C59.4652 14.67 60.3513 15.3143 61.009 14.8355L64.3486 12.4098C64.4921 12.3054 64.665 12.2492 64.8424 12.2492C65.0199 12.2492 65.1928 12.3054 65.3363 12.4098L68.6759 14.8355C69.3336 15.3143 70.2197 14.6709 69.9677 13.8964L68.6927 9.97061C68.6379 9.80194 68.6378 9.62025 68.6926 9.45156C68.7474 9.28288 68.8541 9.13586 68.9976 9.03157L72.3371 6.60585C72.9948 6.12709 72.6572 5.08557 71.8433 5.08557H67.715C67.5379 5.08544 67.3653 5.02932 67.222 4.92523C67.0787 4.82114 66.972 4.67442 66.9171 4.50602L65.6412 0.580182Z" fill="#F9C94E"/>
<path d="M84.6412 0.580182C84.3901 -0.193394 83.2956 -0.193394 83.0437 0.580182L81.7678 4.50602C81.7129 4.67455 81.606 4.82138 81.4625 4.92548C81.319 5.02958 81.1463 5.08562 80.969 5.08557H76.8416C76.0286 5.08557 75.6892 6.12709 76.3477 6.60585L79.6873 9.03157C79.8308 9.13586 79.9375 9.28288 79.9923 9.45156C80.0471 9.62025 80.047 9.80194 79.9922 9.97061L78.7172 13.8964C78.4652 14.67 79.3513 15.3143 80.009 14.8355L83.3486 12.4098C83.4921 12.3054 83.665 12.2492 83.8424 12.2492C84.0199 12.2492 84.1928 12.3054 84.3363 12.4098L87.6759 14.8355C88.3336 15.3143 89.2197 14.6709 88.9677 13.8964L87.6927 9.97061C87.6379 9.80194 87.6378 9.62025 87.6926 9.45156C87.7474 9.28288 87.8541 9.13586 87.9976 9.03157L91.3371 6.60585C91.9948 6.12709 91.6572 5.08557 90.8433 5.08557H86.715C86.5379 5.08544 86.3653 5.02932 86.222 4.92523C86.0787 4.82114 85.972 4.67442 85.9171 4.50602L84.6412 0.580182Z" fill="#F9C94E"/>
</svg>
