<svg width="70" height="70" viewBox="0 0 70 70" fill="none" xmlns="http://www.w3.org/2000/svg">
<rect width="70" height="70" rx="10" fill="#4857EC" fill-opacity="0.2"/>
<path d="M18 36.4444H53M31.125 44.2222L29.6667 50.0556L27.7222 52H43.2778L41.3333 50.0556L39.875 44.2222H31.125ZM21.8889 44.2222H49.1111C50.1425 44.2222 51.1317 43.8125 51.861 43.0832C52.5903 42.3539 53 41.3647 53 40.3333V20.8889C53 19.8575 52.5903 18.8683 51.861 18.139C51.1317 17.4097 50.1425 17 49.1111 17H21.8889C20.8575 17 19.8683 17.4097 19.139 18.139C18.4097 18.8683 18 19.8575 18 20.8889V40.3333C18 41.3647 18.4097 42.3539 19.139 43.0832C19.8683 43.8125 20.8575 44.2222 21.8889 44.2222Z" stroke="#4857EC" stroke-width="3" stroke-linecap="round" stroke-linejoin="round"/>
</svg>
