<svg width="136" height="43" viewBox="0 0 136 43" fill="none" xmlns="http://www.w3.org/2000/svg">
<path d="M17.917 29.3999H0V35.0447H17.917C21.4135 35.0447 24.2245 32.2109 24.2245 28.7372C24.2245 25.2635 21.3907 22.4297 17.917 22.4297H13.2778C9.07276 22.4297 5.64477 19.0017 5.64477 14.7967C5.64477 10.5917 9.07276 7.16369 13.2778 7.16369H31.1948V1.51892H13.2778C5.94186 1.51892 0 7.46078 0 14.7967C0 22.1326 5.94186 28.0745 13.2778 28.0745H17.917C18.2826 28.0745 18.5797 28.3715 18.5797 28.7372C18.5797 29.1029 18.2826 29.3999 17.917 29.3999Z" fill="#AAB2C8"/>
<path d="M13.2778 14.134H31.1948V8.4892H13.2778C9.80407 8.4892 6.97026 11.323 6.97026 14.7967C6.97026 18.2704 9.80407 21.1042 13.2778 21.1042H17.917C22.122 21.1042 25.55 24.5322 25.55 28.7372C25.55 32.9651 22.122 36.3702 17.917 36.3702H0V42.015H17.917C25.2529 42.015 31.1948 36.0731 31.1948 28.7372C31.1948 21.4013 25.2529 15.4595 17.917 15.4595H13.2778C12.9121 15.4595 12.615 15.1624 12.615 14.7967C12.615 14.4311 12.9121 14.134 13.2778 14.134Z" fill="#AAB2C8"/>
<path d="M77.8841 8.4892C75.5073 8.4892 73.5648 10.4089 73.5648 12.8085V30.7483C73.5648 33.1251 75.5073 35.0676 77.8841 35.0676H89.4936V22.4526H80.5351V28.0745H83.8488V29.4H80.5351C79.8038 29.4 79.2096 28.8058 79.2096 28.0745V15.4595C79.2096 14.7281 79.8038 14.134 80.5351 14.134H96.4638V8.4892H77.8841Z" fill="#AAB2C8"/>
<path d="M113.215 35.0447H126.333L117.443 8.55775C117.215 7.82644 116.529 7.32367 115.729 7.32367C114.952 7.32367 114.289 7.82644 114.038 8.5349L102.497 42.015H109.147L113.215 30.1084V35.0447ZM115.638 23.0239L117.557 28.7372H113.695L115.638 23.0239Z" fill="#AAB2C8"/>
<path d="M124.413 7.43795C123.316 3.6443 119.82 0.856201 115.661 0.856201C111.547 0.856201 108.096 3.57575 106.953 7.30084L96.4638 38.0614V15.4595H80.5351V21.1042H90.819V36.3702H77.8612C74.7532 36.3702 72.2165 33.8335 72.2165 30.7255V12.7856C72.2165 9.67758 74.7532 7.16371 77.8612 7.16371H96.441V1.51895H77.8384C71.5994 1.51895 66.5488 6.56953 66.5488 12.8085V30.7255C66.5488 36.9644 71.5994 42.015 77.8384 42.015H101.057L112.735 8.12355C113.147 6.88947 114.312 5.97534 115.706 5.97534C117.1 5.97534 118.266 6.88947 118.677 8.14641L128.138 36.3474H113.192V42.015H136L124.413 7.43795Z" fill="#AAB2C8"/>
<path d="M45.1352 36.3702C42.0272 36.3702 39.4905 33.8335 39.4905 30.7254V12.7856C39.4905 9.67755 42.0272 7.16369 45.1352 7.16369H64.4006V1.51892H45.1352C38.8963 1.51892 33.8457 6.5695 33.8457 12.8085V30.7254C33.8457 36.9644 38.8963 42.015 45.1352 42.015H64.4006V36.3702H45.1352Z" fill="#AAB2C8"/>
<path d="M46.4836 28.0745H60.4241V22.4297H40.8389V30.7254C40.8389 33.1022 42.7814 35.0447 45.1581 35.0447H64.4235V29.3999H47.832C47.0778 29.3999 46.4836 28.8058 46.4836 28.0745Z" fill="#AAB2C8"/>
<path d="M60.4242 15.4595H46.4837C46.4837 14.7281 47.0778 14.134 47.8092 14.134H64.4006V8.4892H45.1353C42.7586 8.4892 40.816 10.4089 40.816 12.7856V21.1042H60.4013V15.4595H60.4242Z" fill="#AAB2C8"/>
</svg>
