<svg width="62" height="62" viewBox="0 0 62 62" fill="none" xmlns="http://www.w3.org/2000/svg">
<circle cx="31" cy="31" r="31" fill="#2FEFB1" fill-opacity="0.2"/>
<path d="M35.6847 35.6847C34.3095 37.0595 32.4445 37.8318 30.5 37.8318C28.5555 37.8318 26.6905 37.0595 25.3153 35.6847M25 26.8333H25.0183M36 26.8333H36.0183M47 30.5C47 32.6668 46.5732 34.8124 45.744 36.8143C44.9148 38.8161 43.6994 40.6351 42.1673 42.1673C40.6351 43.6994 38.8161 44.9148 36.8143 45.744C34.8124 46.5732 32.6668 47 30.5 47C28.3332 47 26.1876 46.5732 24.1857 45.744C22.1839 44.9148 20.3649 43.6994 18.8327 42.1673C17.3006 40.6351 16.0852 38.8161 15.256 36.8143C14.4268 34.8124 14 32.6668 14 30.5C14 26.1239 15.7384 21.9271 18.8327 18.8327C21.9271 15.7384 26.1239 14 30.5 14C34.8761 14 39.0729 15.7384 42.1673 18.8327C45.2616 21.9271 47 26.1239 47 30.5Z" stroke="#2FEFB1" stroke-width="3" stroke-linecap="round" stroke-linejoin="round"/>
</svg>
