<svg width="166" height="41" viewBox="0 0 166 41" fill="none" xmlns="http://www.w3.org/2000/svg">
<path d="M26.3025 0.151515C26.3025 0.151515 28.9707 -0.101788 31.0618 1.27387C31.819 1.23757 32.4318 1.56398 32.8284 2.28784C33.2253 3.01197 33.946 4.74904 33.3694 5.79881C33.1894 6.01632 32.7922 5.14727 32.7922 5.14727C32.7922 5.14727 32.5038 6.19729 31.9628 6.59552C32.0351 8.76763 31.17 10.2877 30.9175 10.7946C30.8093 11.0847 30.8811 11.3377 30.9893 11.6276C31.0975 11.9172 32.5399 17.0211 32.4682 18.7226C32.3961 20.4241 31.5308 22.4518 30.8455 23.1387C30.9893 24.5503 30.3406 25.7455 30.0158 26.325C29.6917 26.9039 28.9707 29.0761 28.7902 30.0895C28.61 31.1035 28.5379 32.1896 28.7541 32.5152C28.9707 32.8406 29.9442 33.8548 29.8719 34.3614C29.7996 34.868 28.7541 35.4475 28.2495 35.4475C27.7447 35.4475 26.6988 35.1221 26.4466 34.4335C26.1943 33.7459 26.1579 32.5517 26.3384 31.8637C26.5186 31.1756 27.7447 26.1443 27.0234 23.1755C25.2567 23.9717 22.3 23.9359 22.3 23.9359C22.3 23.9359 21.7954 26.5783 21.1823 28.0986C20.9657 28.4606 21.0021 30.9223 21.0021 32.4789C21.0021 34.036 21.5431 36.4609 21.5431 36.4609C21.5431 36.4609 22.3002 37.0041 22.192 37.6917C22.0838 38.3792 21.2185 38.7777 20.4614 38.7777C19.704 38.7777 18.6948 38.1983 18.6948 37.2571C18.6948 36.3163 18.8384 34.1807 18.7666 32.6238C18.6948 31.0669 18.7312 30.0535 18.4784 29.0761C18.2259 28.0986 17.5049 25.5283 17.4329 23.5374C17.1806 23.5374 16.9283 23.3562 16.9283 23.3562C16.9283 23.3562 15.7386 24.7321 14.9092 25.5283C15.0174 26.0712 15.3059 27.0486 15.3059 27.2659C15.3059 27.4831 15.5228 27.6644 15.883 27.809C16.2435 27.954 17.3606 28.5692 17.3247 29.1847C17.2888 29.8002 15.8822 29.9088 14.6564 29.3659C14.3682 29.2212 13.3232 25.7098 13.1783 25.2389C13.0337 24.7676 12.9255 24.5148 13.106 24.1161C13.2863 23.7181 13.7914 22.415 13.7191 21.6546C13.6468 20.8945 12.241 19.7 11.3031 19.7C10.5821 19.7 9.47978 20.8058 8.67124 21.4376C7.69772 22.198 6.58011 23.3559 6.29167 23.5371C6.00298 23.7184 3.73136 27.8451 3.29882 29.0395C3.11883 29.5101 2.75835 31.8634 0.847467 31.7908C-0.0178524 31.7182 -0.81138 30.7773 1.64023 29.0758C2.26268 27.6365 3.12825 26.1428 3.18223 25.8442C3.2362 25.5454 3.88538 21.8259 4.96709 18.2968C6.0488 14.7669 7.64426 13.0835 7.94161 12.8391C8.18499 12.6495 8.32017 12.5406 8.07679 12.4051C7.83341 12.2694 5.26444 10.0699 5.7512 5.40032C5.83241 4.85742 6.07553 4.99315 6.23796 6.24202C6.40012 7.4909 7.40037 10.4229 9.61777 11.3464C9.83441 11.4277 11.4296 10.2062 19.5693 9.60882C19.6233 8.16978 19.8397 6.64945 19.8397 6.64945C19.8397 6.64945 19.2717 6.21518 19.1908 5.34613C18.9204 5.78066 18.758 5.88929 18.4064 5.83485C18.0548 5.7804 18.0818 4.097 18.163 2.90231C18.2442 1.70763 19.6233 1.19207 20.137 1.13789C20.8129 0.784643 21.5431 0.839342 21.5431 0.839342C21.5431 0.839342 22.787 -0.427426 26.3025 0.151515Z" fill="#AAB2C8"/>
<path d="M41.6616 7.57953H64.4127L52.6226 26.8747H64.6653V32.1964H41.6616L53.9204 12.9372H41.6616V7.57953Z" fill="#AAB2C8"/>
<path d="M65.4586 7.57956H72.3452L77.9335 22.2404L83.8466 7.54352H90.2287L77.1764 40.377H70.3259L74.5081 31.0373L65.4586 7.57956Z" fill="#AAB2C8"/>
<path d="M91.2951 7.61584H97.6917V9.71536C97.6917 9.71536 100.18 7.07294 104.579 7.07294C108.977 7.07294 111.861 10.693 111.861 14.6751V32.2685H105.443V15.3989C105.443 11.6342 101.153 11.9964 97.6553 17.0279V32.2685H91.2735L91.2951 7.61584Z" fill="#AAB2C8"/>
<path d="M137.245 25.2095V7.57978H130.827V8.62928C130.827 8.62928 128.297 7.2682 125.923 7.10921C122.137 6.85565 114.818 9.78768 114.782 19.598C114.743 30.2768 122.281 31.7251 124.553 31.7251C125.959 31.7251 128.411 31.5444 130.827 29.5167C130.827 34.5487 128.05 35.4541 125.599 35.4541H118.893L118.856 40.9927C118.856 40.9927 122.462 40.9562 126.319 40.8112C137.677 40.1237 137.245 31.0017 137.245 25.2095ZM130.827 22.8922C130.827 22.8922 128.844 25.7887 125.31 25.7887C121.777 25.7887 121.416 22.349 121.416 19.7789C121.416 17.2089 122.173 12.4667 126.175 12.4667C129.023 12.4667 130.827 14.5664 130.827 14.5664V22.8922H130.827Z" fill="#AAB2C8"/>
<path d="M161.726 27.309C158.95 28.0329 158.986 26.8021 158.986 25.0643V14.6027C158.986 9.28158 155.092 7.03662 150.585 7.03662C146.078 7.03662 141.787 9.17218 141.787 9.17218V15.1817C141.787 15.1817 145.753 12.4666 149.647 12.4666C153.541 12.4666 152.64 15.4713 152.64 16.7017C144.275 16.8464 139.804 20.0322 139.804 25.4983C139.804 30.9651 144.996 32.7748 147.267 32.7748C149.539 32.7748 151.991 31.6888 153.865 30.2771C154.586 31.5443 156.029 32.7748 158.048 32.7748C160.068 32.7748 162.302 31.5799 162.302 31.5799C162.302 31.5799 161.907 28.576 161.726 27.309ZM152.604 25.463C152.604 25.463 150.801 27.092 148.638 27.092C146.475 27.092 146.186 25.463 146.186 24.9199C146.186 24.377 146.475 21.2277 152.604 21.4447V25.463Z" fill="#AAB2C8"/>
</svg>
